<svg id="visual" viewBox="0 0 900 600" width="900" height="600" xmlns="http://www.w3.org/2000/svg" xmlns:xlink="http://www.w3.org/1999/xlink" version="1.1"><rect x="0" y="0" width="900" height="600" fill="#FFFFFF"></rect><path d="M0 102L21.5 106.8C43 111.7 86 121.3 128.8 125.7C171.7 130 214.3 129 257.2 128.8C300 128.7 343 129.3 385.8 128.2C428.7 127 471.3 124 514.2 120.7C557 117.3 600 113.7 642.8 106.8C685.7 100 728.3 90 771.2 88.7C814 87.3 857 94.7 878.5 98.3L900 102L900 0L878.5 0C857 0 814 0 771.2 0C728.3 0 685.7 0 642.8 0C600 0 557 0 514.2 0C471.3 0 428.7 0 385.8 0C343 0 300 0 257.2 0C214.3 0 171.7 0 128.8 0C86 0 43 0 21.5 0L0 0Z" fill="#52cab0"></path><path d="M0 105L21.5 104.2C43 103.3 86 101.7 128.8 95.8C171.7 90 214.3 80 257.2 72.5C300 65 343 60 385.8 61.7C428.7 63.3 471.3 71.7 514.2 80.2C557 88.7 600 97.3 642.8 97C685.7 96.7 728.3 87.3 771.2 80.8C814 74.3 857 70.7 878.5 68.8L900 67L900 0L878.5 0C857 0 814 0 771.2 0C728.3 0 685.7 0 642.8 0C600 0 557 0 514.2 0C471.3 0 428.7 0 385.8 0C343 0 300 0 257.2 0C214.3 0 171.7 0 128.8 0C86 0 43 0 21.5 0L0 0Z" fill="#32af91"></path><path d="M0 27L21.5 28.7C43 30.3 86 33.7 128.8 33.7C171.7 33.7 214.3 30.3 257.2 31.3C300 32.3 343 37.7 385.8 36.8C428.7 36 471.3 29 514.2 29.7C557 30.3 600 38.7 642.8 41.3C685.7 44 728.3 41 771.2 43.5C814 46 857 54 878.5 58L900 62L900 0L878.5 0C857 0 814 0 771.2 0C728.3 0 685.7 0 642.8 0C600 0 557 0 514.2 0C471.3 0 428.7 0 385.8 0C343 0 300 0 257.2 0C214.3 0 171.7 0 128.8 0C86 0 43 0 21.5 0L0 0Z" fill="#009473"></path></svg>